<svg width="19" height="19" viewBox="0 0 19 19" fill="none" xmlns="http://www.w3.org/2000/svg">
<path d="M18.15 6.19607C18.1399 5.43869 17.9981 4.68885 17.731 3.98007C17.4994 3.38222 17.1455 2.83927 16.6922 2.3859C16.2388 1.93253 15.6959 1.57872 15.098 1.34707C14.3983 1.08443 13.6592 0.942412 12.912 0.92707C11.95 0.88407 11.645 0.87207 9.20301 0.87207C6.76101 0.87207 6.44801 0.87207 5.49301 0.92707C4.74617 0.942524 4.00736 1.08454 3.30801 1.34707C2.71007 1.57856 2.16703 1.93231 1.71365 2.3857C1.26026 2.83909 0.906501 3.38213 0.675012 3.98007C0.411843 4.6792 0.270135 5.41818 0.256012 6.16507C0.213012 7.12807 0.200012 7.43307 0.200012 9.87507C0.200012 12.3171 0.200012 12.6291 0.256012 13.5851C0.271012 14.3331 0.412012 15.0711 0.675012 15.7721C0.90689 16.3698 1.26091 16.9126 1.71445 17.3658C2.16799 17.819 2.71108 18.1726 3.30901 18.4041C4.00645 18.6773 4.74538 18.8295 5.49401 18.8541C6.45701 18.8971 6.76201 18.9101 9.20401 18.9101C11.646 18.9101 11.959 18.9101 12.914 18.8541C13.6612 18.8394 14.4004 18.6977 15.1 18.4351C15.6977 18.2032 16.2405 17.8492 16.6939 17.3959C17.1472 16.9426 17.5011 16.3998 17.733 15.8021C17.996 15.1021 18.137 14.3641 18.152 13.6151C18.195 12.6531 18.208 12.3481 18.208 9.90507C18.206 7.46307 18.206 7.15307 18.15 6.19607ZM9.19701 14.4931C6.64301 14.4931 4.57401 12.4241 4.57401 9.87007C4.57401 7.31607 6.64301 5.24707 9.19701 5.24707C10.4231 5.24707 11.599 5.73414 12.466 6.60112C13.3329 7.4681 13.82 8.64397 13.82 9.87007C13.82 11.0962 13.3329 12.272 12.466 13.139C11.599 14.006 10.4231 14.4931 9.19701 14.4931ZM14.004 6.15407C13.8624 6.1542 13.7222 6.12641 13.5913 6.07228C13.4605 6.01815 13.3416 5.93875 13.2415 5.83862C13.1413 5.7385 13.0619 5.61961 13.0078 5.48876C12.9537 5.35791 12.9259 5.21767 12.926 5.07607C12.926 4.93457 12.9539 4.79446 13.008 4.66373C13.0622 4.533 13.1416 4.41422 13.2416 4.31416C13.3417 4.21411 13.4604 4.13474 13.5912 4.08059C13.7219 4.02644 13.862 3.99857 14.0035 3.99857C14.145 3.99857 14.2851 4.02644 14.4159 4.08059C14.5466 4.13474 14.6654 4.21411 14.7654 4.31416C14.8655 4.41422 14.9448 4.533 14.999 4.66373C15.0531 4.79446 15.081 4.93457 15.081 5.07607C15.081 5.67207 14.599 6.15407 14.004 6.15407Z" fill="white"/>
</svg>
