<svg width="24" height="20" viewBox="0 0 24 20" fill="none" xmlns="http://www.w3.org/2000/svg">
<path d="M23.25 3.06159C22.415 3.43159 21.518 3.68159 20.575 3.79459C21.548 3.21238 22.2759 2.29605 22.623 1.21659C21.7089 1.75958 20.7084 2.14178 19.665 2.34659C18.9634 1.59745 18.0341 1.10091 17.0213 0.934063C16.0086 0.767211 14.9691 0.93938 14.0642 1.42384C13.1594 1.9083 12.4398 2.67795 12.0172 3.61329C11.5945 4.54863 11.4925 5.59734 11.727 6.59659C9.87469 6.50358 8.06263 6.02214 6.40843 5.18349C4.75423 4.34485 3.29485 3.16775 2.12501 1.72859C1.72501 2.41859 1.49501 3.21859 1.49501 4.07059C1.49456 4.83758 1.68344 5.59283 2.04488 6.26932C2.40633 6.94581 2.92917 7.52263 3.56701 7.94859C2.82728 7.92505 2.10388 7.72517 1.45701 7.36559V7.42559C1.45693 8.50133 1.82904 9.54397 2.51019 10.3766C3.19134 11.2092 4.13958 11.7805 5.19401 11.9936C4.50779 12.1793 3.78834 12.2067 3.09001 12.0736C3.3875 12.9992 3.967 13.8086 4.74737 14.3885C5.52775 14.9684 6.46992 15.2898 7.44201 15.3076C5.79184 16.603 3.75389 17.3057 1.65601 17.3026C1.28439 17.3027 0.913083 17.281 0.544006 17.2376C2.67348 18.6068 5.15235 19.3334 7.68401 19.3306C16.254 19.3306 20.939 12.2326 20.939 6.07659C20.939 5.87659 20.934 5.67459 20.925 5.47459C21.8363 4.81556 22.6229 3.99948 23.248 3.06459L23.25 3.06159Z" fill="white"/>
</svg>
